<?xml version="1.0" encoding="utf-8"?>
<!-- Generator: Adobe Illustrator 27.0.1, SVG Export Plug-In . SVG Version: 6.00 Build 0)  -->
<svg version="1.1" id="Layer_1" xmlns="http://www.w3.org/2000/svg" xmlns:xlink="http://www.w3.org/1999/xlink" x="0px" y="0px"
	 viewBox="0 0 250 250" style="enable-background:new 0 0 250 250;" xml:space="preserve">
<style type="text/css">
	.st1{fill:#303030;stroke:#00D0C6;stroke-width:3.3876;stroke-miterlimit:10;}
</style>
<polygon class="st1" points="135.07,64.76 135.07,73.61 114.74,101.66 101,101.66 101,120.62 83.71,144.46 101,138.7 101,185.58
	57.62,185.58 57.62,101.09 22.7,101.09 22.7,64.76 "/>
<path class="st1" d="M234.22,153.51c-0.36,2.13-4.27,27.05-40.05,31.5c-35.78,4.45-59.1-18.69-59.1-18.69l16.91-24.03
	c19.94,15.13,46.73,17.26,47.53,7.83c0.89-10.48-28.89-10.14-40.69-18.1l7.98-11.5l-17.48,4.89c-4.64-4.09-7.61-8.4-9.5-12.4
	l15.35-41.26c5.36-2.93,12.22-5.26,21.02-6.35c35.78-4.45,55.64,16,55.64,16l-16.91,24.03c-20.22-13.33-40.96-14.75-41.75-5.32
	c-0.89,10.5,34.35,7.34,51.26,22.88C237.6,133.6,234.58,151.37,234.22,153.51z"/>
</svg>
