<?xml version="1.0" encoding="utf-8"?>
<!-- Generator: Adobe Illustrator 27.0.1, SVG Export Plug-In . SVG Version: 6.00 Build 0)  -->
<svg version="1.1" xmlns="http://www.w3.org/2000/svg" xmlns:xlink="http://www.w3.org/1999/xlink" x="0px" y="0px"
	 viewBox="0 0 1471.51 452.26" style="enable-background:new 0 0 1471.51 452.26;" xml:space="preserve">
<style type="text/css">
	.st1{fill:#FFFFFF;}
	.st2{fill:#303030;stroke:#00D0C6;stroke-width:4;stroke-linejoin:round;stroke-miterlimit:10;}
</style>

<g id="Layer_2">
	<path class="st1" d="M363.41,153.85c-11.87,0-23,3.05-32.62,8.37c-11.77-16.61-31-27.44-52.76-27.44c-5.28,0-10.4,0.65-15.31,1.85
		c-9.07-25.14-32.94-43.09-60.95-43.09c-35.82,0-64.86,29.34-64.86,65.54c0,0.41,0.02,0.81,0.03,1.22
		c-14.41,12.02-23.59,30.11-23.59,50.35c0,34.15,26.12,62.19,59.47,65.25c-0.17,1.95-0.28,3.92-0.28,5.91
		c0,36.2,29.34,65.54,65.54,65.54c12.66,0,24.47-3.6,34.48-9.81c8.18,5.02,17.57,7.88,27.56,7.88c31.56,0,57.17-28.53,57.51-63.87
		c1.91,0.16,3.83,0.26,5.78,0.26c36.45,0,66-28.65,66-63.98S399.86,153.85,363.41,153.85z"/>
	<path class="st1" d="M1343.46,218.14c5.35-10.32,8.38-21.96,8.38-34.28c0-42.49-35.78-76.93-79.93-76.93
		c-31.21,0-58.22,17.23-71.38,42.33c-15.09-12.71-33.51-20.76-53.54-22.24c-10.57-14.34-30.32-23.99-52.95-23.99
		c-30.22,0-55.3,17.2-60.23,39.79c-7.5-2.16-15.44-3.34-23.65-3.34c-46.33,0-83.89,36.87-83.89,82.35s37.56,82.35,83.89,82.35
		c15.65,0,30.28-4.22,42.82-11.54c17.13,34,49.8,56.97,87.29,56.97c18.35,0,35.54-5.51,50.32-15.11
		c16.75,30.95,51.94,52.27,92.66,52.27c56.93,0,103.07-41.67,103.07-93.08C1386.31,262.58,1369.41,235.04,1343.46,218.14z"/>
	<polygon class="st2" points="168.47,176.72 168.47,219.62 209.71,219.62 209.71,319.38 260.92,319.38 260.92,220.29 301.16,220.29 
		301.16,176.72 	"/>
	<polygon class="st2" points="721.32,172.9 721.32,211.14 763.39,211.14 763.22,317.06 806.29,317.06 806.45,211.14 848.19,211.14 
		848.19,172.9 	"/>
	<path class="st2" d="M719.37,280.38c-0.44,2.66-5.32,33.77-50,39.33c-44.66,5.55-73.77-23.33-73.77-23.33l21.11-30.01
		c24.88,18.89,58.33,21.55,59.33,9.78c1.1-13.08-36.07-12.67-50.8-22.6l12.77-22.18l-30.24,7.19c-3.41,0.81-6.33-2.55-5.05-5.81
		l21.77-55.47c6.69-3.67,11.46-5.52,22.44-6.88c44.66-5.57,68.23,21.04,68.23,21.04l-21.95,29.18
		c-25.25-16.64-49.06-18.66-50.07-6.9c-1.11,13.11,42.89,9.16,64,28.58C723.6,255.52,719.81,277.72,719.37,280.38z"/>
	<polygon class="st2" points="308.97,176.72 359.52,176.72 359.52,225.28 398.26,225.28 398.26,176.72 448.8,176.72 448.8,319.38 
		398.92,319.38 398.92,270.17 359.68,270.17 359.68,319.38 308.97,319.38 	"/>
	<polygon class="st2" points="461.27,176.72 461.27,319.38 574.84,319.38 585.81,277.65 511.32,277.65 511.32,266.34 559.71,266.34 
		570.18,229.1 511.32,229.1 511.32,218.46 572.84,218.46 583.98,176.72 	"/>
	<path class="st2" d="M1121.7,267.18c0,0,27.65-11.97,27.6-42.57c-0.06-35.03-23.33-50.99-48.88-51.38
		c-27.27-0.41-78.98-0.83-78.98-0.83v144.32H1064v-41.57h13.97l28.27,42.23h50.05L1121.7,267.18z M1091.42,240.41h-27.25v-30.2
		h27.25c8.64,0,15.65,6.76,15.65,15.1S1100.06,240.41,1091.42,240.41z"/>
	<polygon class="st2" points="1207.11,317.39 1165.21,317.39 1165.21,173.62 1208.66,173.62 1241.69,225.31 1273.39,173.62 
		1317.73,173.62 1317.73,317.39 1275.61,317.39 1275.61,242.47 1241.47,292.01 1206.66,242.47 	"/>
	<path class="st2" d="M927.82,170.04c-42.81,0-77.52,33.56-77.52,74.95s34.71,74.95,77.52,74.95s77.52-33.56,77.52-74.95
		S970.63,170.04,927.82,170.04z M927.88,280.96c-18.73,0-33.92-16.09-33.92-35.94s15.19-35.94,33.92-35.94s33.92,16.09,33.92,35.94
		S946.61,280.96,927.88,280.96z"/>
</g>
</svg>
